<svg width="40" height="40" viewBox="0 0 40 40" fill="none" xmlns="http://www.w3.org/2000/svg">
<g clip-path="url(#clip0_2249_415)">
<g clip-path="url(#clip1_2249_415)">
<path d="M29.0906 39.52C28.8506 39.52 28.6106 39.46 28.3906 39.35L23.7206 36.95C22.5206 37.23 21.2706 37.37 20.0106 37.37C11.8106 37.37 6.91062 31.56 4.72062 28.1C3.78062 26.61 3.78062 24.75 4.72062 23.26C6.90062 19.81 11.8006 14 20.0006 14C28.2006 14 33.1006 19.81 35.2906 23.27C36.2306 24.76 36.2306 26.62 35.2906 28.11C34.3706 29.57 32.8206 31.65 30.6206 33.46V37.98C30.6206 38.83 29.9306 39.52 29.0906 39.52Z" fill="white"/>
<path d="M28.8394 38.46L23.8294 35.89C22.6494 36.2 21.3694 36.38 19.9894 36.38C12.1594 36.38 7.47938 30.64 5.53938 27.57C4.79937 26.41 4.79937 24.96 5.53938 23.8C7.48938 20.74 12.1694 15 19.9994 15C27.8294 15 32.5094 20.74 34.4494 23.81C35.1894 24.97 35.1894 26.42 34.4494 27.58C33.5094 29.07 31.9094 31.2 29.6194 32.99V37.99C29.6194 38.39 29.1994 38.65 28.8394 38.47V38.46Z" fill="#C7F2FF"/>
<path d="M19.9672 27.5203C20.8508 27.5203 21.5672 26.804 21.5672 25.9203C21.5672 25.0367 20.8508 24.3203 19.9672 24.3203C19.0835 24.3203 18.3672 25.0367 18.3672 25.9203C18.3672 26.804 19.0835 27.5203 19.9672 27.5203Z" fill="white"/>
<path d="M25.6156 27.5203C26.4993 27.5203 27.2156 26.804 27.2156 25.9203C27.2156 25.0367 26.4993 24.3203 25.6156 24.3203C24.732 24.3203 24.0156 25.0367 24.0156 25.9203C24.0156 26.804 24.732 27.5203 25.6156 27.5203Z" fill="white"/>
<path d="M14.3187 27.5203C15.2024 27.5203 15.9187 26.804 15.9187 25.9203C15.9187 25.0367 15.2024 24.3203 14.3187 24.3203C13.4351 24.3203 12.7188 25.0367 12.7188 25.9203C12.7188 26.804 13.4351 27.5203 14.3187 27.5203Z" fill="white"/>
</g>
</g>
<defs>
<clipPath id="clip0_2249_415">
<rect width="40" height="40" fill="white"/>
</clipPath>
<clipPath id="clip1_2249_415">
<rect width="32" height="25.52" fill="white" transform="translate(4 14)"/>
</clipPath>
</defs>
</svg>
