<svg width="40" height="40" viewBox="0 0 40 40" fill="none" xmlns="http://www.w3.org/2000/svg">
<g clip-path="url(#clip0_2249_412)">
<g clip-path="url(#clip1_2249_412)">
<path d="M36 34V14C36 10.6863 33.3137 8 30 8L10 8C6.68629 8 4 10.6863 4 14V34C4 37.3137 6.68629 40 10 40H30C33.3137 40 36 37.3137 36 34Z" fill="white"/>
<path d="M30 9H10C7.23858 9 5 11.2386 5 14V34C5 36.7614 7.23858 39 10 39H30C32.7614 39 35 36.7614 35 34V14C35 11.2386 32.7614 9 30 9Z" fill="#3BD242"/>
<path d="M17.2428 31.0014C16.8628 31.0014 16.4728 30.8614 16.1828 30.5714L10.4428 24.9314C9.86281 24.3614 9.86281 23.4214 10.4428 22.8514C11.0228 22.2814 11.9728 22.2814 12.5628 22.8514L17.2528 27.4514L27.4528 17.4314C28.0328 16.8614 28.9828 16.8614 29.5728 17.4314C30.1528 18.0014 30.1528 18.9414 29.5728 19.5114L18.3128 30.5714C18.0228 30.8614 17.6328 31.0014 17.2528 31.0014H17.2428Z" fill="#F4F4F4"/>
</g>
</g>
<defs>
<clipPath id="clip0_2249_412">
<rect width="40" height="40" fill="white"/>
</clipPath>
<clipPath id="clip1_2249_412">
<rect width="32" height="32" fill="white" transform="translate(4 8)"/>
</clipPath>
</defs>
</svg>
