<svg width="182" height="180" viewBox="0 0 182 180" fill="none" xmlns="http://www.w3.org/2000/svg">
<g clip-path="url(#clip0_91724_1065)">
<path d="M1.5 102.154L4.93242 116.819L55.6111 106.574L15.7344 139.821L25.1231 151.574L66.4131 120.435L44.91 167.545L58.5387 174.074L82.1618 128.27L83.3732 180H98.5163L99.7277 128.471L123.452 174.576L137.08 168.047L115.678 121.138L157.17 152.478L166.559 140.625L126.884 107.578L177.866 117.924L181.298 103.259L131.023 90.6027L181.5 77.846L178.169 63.1808L127.389 73.4263L167.266 40.1786L157.877 28.4263L116.587 59.5647L138.09 12.4554L124.461 5.92635L100.838 51.8304L99.6268 0H84.4837L83.2723 51.529L59.6492 5.42412L45.9195 11.9531L67.3216 58.8616L25.8298 27.5223L16.4411 39.375L56.1158 72.4219L5.13434 62.0759L1.80287 76.7411L51.9767 89.3973L1.5 102.154Z" fill="#FF834F"/>
</g>
<defs>
<clipPath id="clip0_91724_1065">
<rect width="180" height="180" fill="white" transform="matrix(-1 0 0 -1 181.5 180)"/>
</clipPath>
</defs>
</svg>
