<svg width="40" height="40" viewBox="0 0 40 40" fill="none" xmlns="http://www.w3.org/2000/svg">
<g clip-path="url(#clip0_2282_361)">
<g clip-path="url(#clip1_2282_361)">
<path d="M13.8304 39.82C13.4404 39.82 13.0804 39.65 12.8404 39.35C12.6004 39.06 12.5104 38.68 12.5804 38.31C12.8304 37.09 13.9004 36.21 15.1404 36.21H15.5204V35.6C13.1104 34.48 11.1804 32.47 10.1604 30.04C9.50043 30.22 8.82043 30.32 8.13043 30.33H8.03043C7.11043 30.33 6.22043 30.18 5.37043 29.87C4.71043 29.64 4.21043 29.09 4.06043 28.4C3.90043 27.7 4.11043 26.98 4.62043 26.47L11.3804 19.71C11.4204 19.65 11.4504 19.61 11.4804 19.57C11.4904 15.09 14.8004 11.44 19.2104 11.04C19.4604 11.02 19.7304 11 20.0004 11C20.2704 11 20.5404 11.01 20.7904 11.04C25.1904 11.45 28.5104 15.09 28.5104 19.51L28.6004 19.67L35.3904 26.47C35.9004 26.98 36.1104 27.7 35.9504 28.4C35.7904 29.09 35.3004 29.64 34.6304 29.88C33.7904 30.18 32.9004 30.33 31.9804 30.33H31.8804C31.1904 30.33 30.5004 30.22 29.8404 30.04C28.8204 32.47 26.9004 34.47 24.5004 35.59V36.2H24.8704C26.1204 36.2 27.2004 37.09 27.4304 38.31C27.5004 38.67 27.4104 39.05 27.1704 39.34C26.9304 39.64 26.5704 39.81 26.1804 39.81H13.8404L13.8304 39.82Z" fill="white"/>
<path d="M18.1312 37.2095H21.8812L21.8612 30.7695H23.4712L23.4912 37.2095H24.8512C25.6312 37.2095 26.2912 37.7695 26.4312 38.5095C26.4612 38.6695 26.3312 38.8195 26.1612 38.8195H13.8212C13.6512 38.8195 13.5212 38.6695 13.5512 38.5095C13.7012 37.7695 14.3412 37.2095 15.1312 37.2095H16.5112L16.4912 30.7695H18.1012L18.1212 37.2095H18.1312Z" fill="#FF822D"/>
<path d="M15.1481 22.3014C15.1581 20.8814 14.7481 19.5514 14.0581 18.4414L5.3181 27.1714C4.7581 27.7314 4.9681 28.6714 5.7081 28.9314C6.4581 29.2014 7.2781 29.3414 8.1181 29.3314C11.9581 29.2914 15.0981 26.1514 15.1481 22.3014Z" fill="#F9C23C"/>
<path d="M24.8459 22.3114C24.8359 20.8814 25.2359 19.5514 25.9359 18.4414L34.6659 27.1814C35.2259 27.7414 35.0159 28.6814 34.2759 28.9414C33.5259 29.2114 32.7059 29.3514 31.8659 29.3414C28.0259 29.3014 24.8859 26.1614 24.8359 22.3114H24.8459Z" fill="#F9C23C"/>
<path d="M27.7216 20.16C27.5816 19.97 27.5116 19.74 27.5116 19.51C27.5116 15.59 24.5216 12.39 20.7016 12.03C20.4716 12.01 20.2416 12 20.0016 12C19.7616 12 19.5316 12.01 19.3016 12.03C15.4816 12.38 12.4916 15.6 12.4916 19.51C12.4916 19.75 12.4116 19.97 12.2816 20.16C11.0716 21.77 10.3516 23.78 10.3516 25.94C10.3516 31.27 14.6716 35.59 20.0016 35.59C25.3316 35.59 29.6516 31.27 29.6516 25.94C29.6516 23.77 28.9316 21.77 27.7216 20.16Z" fill="#FCD53F"/>
<path d="M16.7909 17.8994C16.7909 18.1994 16.5509 18.4394 16.2509 18.4394C15.9509 18.4394 15.7109 18.1994 15.7109 17.8994C15.7109 17.5994 15.9509 17.3594 16.2509 17.3594C16.5509 17.3594 16.7909 17.5994 16.7909 17.8994Z" fill="#212121"/>
<path d="M24.2987 17.8994C24.2987 18.1994 24.0588 18.4394 23.7588 18.4394C23.4588 18.4394 23.2188 18.1994 23.2188 17.8994C23.2188 17.5994 23.4588 17.3594 23.7588 17.3594C24.0588 17.3594 24.2987 17.5994 24.2987 17.8994Z" fill="#212121"/>
<path d="M19.9859 17.3594C18.8059 17.3594 17.8359 18.3294 17.8359 19.5094H22.1259C22.1259 18.3294 21.1559 17.3594 19.9759 17.3594H19.9859Z" fill="#FF822D"/>
</g>
</g>
<defs>
<clipPath id="clip0_2282_361">
<rect width="40" height="40" fill="white"/>
</clipPath>
<clipPath id="clip1_2282_361">
<rect width="32" height="28.82" fill="white" transform="translate(4 11)"/>
</clipPath>
</defs>
</svg>
