<svg width="40" height="40" viewBox="0 0 40 40" fill="none" xmlns="http://www.w3.org/2000/svg">
<g clip-path="url(#clip0_2358_1682)">
<g clip-path="url(#clip1_2358_1682)">
<path d="M9.28784 40C8.35784 40 7.44784 39.76 6.64784 39.29C5.01784 38.35 4.00784 36.59 4.00784 34.71V13.29C3.99784 10.37 6.36784 8 9.28784 8H30.7178C33.6278 8 36.0078 10.37 36.0078 13.29V34.72C36.0078 36.6 34.9978 38.36 33.3678 39.3C32.5678 39.76 9.29784 40.01 9.29784 40.01L9.28784 40Z" fill="white"/>
<path d="M5 13.29C5 10.92 6.92 9 9.29 9H30.72C33.09 9 35.01 10.92 35.01 13.29V34.72C35.01 36.31 34.15 37.69 32.87 38.43L31.32 37.93C30.25 37.59 29.09 37.68 28.09 38.18L26.44 39.01H23.23L20.02 37.4L16.81 39.01H13.6L11.95 38.18C10.95 37.68 9.79 37.59 8.72 37.93L7.17 38.43C5.89 37.69 5.03 36.3 5.03 34.72V13.29H5Z" fill="#C6E9F4"/>
<path d="M13.57 18.64V29.35H5V30.42H13.57V38.99H14.64V30.42H25.35V38.99H26.42V30.42H34.99V29.35H26.42V18.64H34.99V17.57H26.42V9H25.35V17.57H14.64V9H13.57V17.57H5V18.64H13.57ZM14.64 18.64H25.35V29.35H14.64V18.64Z" fill="#95AFB7"/>
<path d="M9.28625 39H13.5763V17.8C13.5763 17.08 12.9863 16.5 12.2663 16.5H8.46625C7.73625 16.5 7.15625 17.08 7.15625 17.8V38.43C7.78625 38.79 8.51625 39 9.29625 39H9.28625Z" fill="#39DAFF"/>
<path d="M21.8991 25.0703H18.0991C17.3691 25.0703 16.7891 25.6503 16.7891 26.3703V39.0003H23.2191V26.3703C23.2191 25.6503 22.6291 25.0703 21.9091 25.0703H21.8991Z" fill="#29A5C5"/>
<path d="M26.4297 39.0012H30.7197C31.4997 39.0012 32.2297 38.7913 32.8597 38.4312V14.5812C32.8597 13.8612 32.2697 13.2812 31.5497 13.2812H27.7497C27.0197 13.2812 26.4397 13.8612 26.4397 14.5812V39.0012H26.4297Z" fill="#196F8C"/>
</g>
</g>
<defs>
<clipPath id="clip0_2358_1682">
<rect width="40" height="40" fill="white"/>
</clipPath>
<clipPath id="clip1_2358_1682">
<rect width="32" height="32" fill="white" transform="translate(4 8)"/>
</clipPath>
</defs>
</svg>
