<svg width="30" height="48" viewBox="0 0 30 48" fill="none" xmlns="http://www.w3.org/2000/svg">
<g clip-path="url(#clip0_1529_3570)">
<path d="M15.3536 -0.353553C15.1583 -0.548816 14.8417 -0.548816 14.6464 -0.353553L11.4645 2.82843C11.2692 3.02369 11.2692 3.34027 11.4645 3.53553C11.6597 3.7308 11.9763 3.7308 12.1716 3.53553L15 0.707107L17.8284 3.53553C18.0237 3.7308 18.3403 3.7308 18.5355 3.53553C18.7308 3.34027 18.7308 3.02369 18.5355 2.82843L15.3536 -0.353553ZM14.5 24C14.5 24.2761 14.7239 24.5 15 24.5C15.2761 24.5 15.5 24.2761 15.5 24H14.5ZM14.5 0V24H15.5V0H14.5Z" fill="#F8F7E5"/>
</g>
<defs>
<clipPath id="clip0_1529_3570">
<rect width="30" height="48" fill="white"/>
</clipPath>
</defs>
</svg>
