<svg width="16" height="16" viewBox="0 0 16 16" fill="none" xmlns="http://www.w3.org/2000/svg">
<mask id="mask0_2286_953" style="mask-type:alpha" maskUnits="userSpaceOnUse" x="0" y="0" width="16" height="16">
<rect width="16" height="16" fill="#D9D9D9"/>
</mask>
<g mask="url(#mask0_2286_953)">
<path d="M7.06927 9.1987L5.63594 7.76536C5.51372 7.64314 5.35816 7.58203 5.16927 7.58203C4.98038 7.58203 4.82483 7.64314 4.7026 7.76536C4.58038 7.88759 4.51927 8.04314 4.51927 8.23203C4.51927 8.42092 4.58038 8.57648 4.7026 8.6987L6.6026 10.5987C6.73594 10.732 6.89149 10.7987 7.06927 10.7987C7.24705 10.7987 7.4026 10.732 7.53594 10.5987L11.3026 6.83203C11.4248 6.70981 11.4859 6.55425 11.4859 6.36536C11.4859 6.17648 11.4248 6.02092 11.3026 5.8987C11.1804 5.77648 11.0248 5.71536 10.8359 5.71536C10.647 5.71536 10.4915 5.77648 10.3693 5.8987L7.06927 9.1987ZM8.0026 14.6654C7.08038 14.6654 6.21372 14.4904 5.4026 14.1404C4.59149 13.7904 3.88594 13.3154 3.28594 12.7154C2.68594 12.1154 2.21094 11.4098 1.86094 10.5987C1.51094 9.78759 1.33594 8.92092 1.33594 7.9987C1.33594 7.07648 1.51094 6.20981 1.86094 5.3987C2.21094 4.58759 2.68594 3.88203 3.28594 3.28203C3.88594 2.68203 4.59149 2.20703 5.4026 1.85703C6.21372 1.50703 7.08038 1.33203 8.0026 1.33203C8.92483 1.33203 9.79149 1.50703 10.6026 1.85703C11.4137 2.20703 12.1193 2.68203 12.7193 3.28203C13.3193 3.88203 13.7943 4.58759 14.1443 5.3987C14.4943 6.20981 14.6693 7.07648 14.6693 7.9987C14.6693 8.92092 14.4943 9.78759 14.1443 10.5987C13.7943 11.4098 13.3193 12.1154 12.7193 12.7154C12.1193 13.3154 11.4137 13.7904 10.6026 14.1404C9.79149 14.4904 8.92483 14.6654 8.0026 14.6654Z" fill="#F8F7E5"/>
</g>
</svg>
