<svg width="505" height="500" viewBox="0 0 505 500" fill="none" xmlns="http://www.w3.org/2000/svg">
<g clip-path="url(#clip0_2175_1835)">
<path d="M500 283.761L490.466 324.498L349.692 296.038L460.46 388.393L434.38 421.038L319.686 334.542L379.417 465.402L341.559 483.538L275.939 356.306L272.574 500L230.51 500L227.145 356.864L161.245 484.933L123.388 466.797L182.838 336.496L67.5827 423.549L41.5031 390.625L151.711 298.828L10.0953 327.567L0.560852 286.83L140.213 251.674L0 216.239L9.25407 175.502L150.308 203.962L39.5401 111.607L65.6197 78.9621L180.314 165.458L120.583 34.5982L158.441 16.4621L224.061 143.973L227.426 0L269.49 0L272.855 143.136L338.474 15.067L376.612 33.2032L317.162 163.504L432.417 76.4509L458.497 109.375L348.289 201.172L489.905 172.433L499.159 213.17L359.787 248.326L500 283.761Z" fill="#FF834F"/>
</g>
<defs>
<clipPath id="clip0_2175_1835">
<rect width="500" height="500" fill="white" transform="matrix(1 0 0 -1 0 500)"/>
</clipPath>
</defs>
</svg>
