<svg width="40" height="40" viewBox="0 0 40 40" fill="none" xmlns="http://www.w3.org/2000/svg">
<rect x="0.5" y="0.5" width="39" height="39" rx="19.5" fill="#FF834F"/>
<rect x="0.5" y="0.5" width="39" height="39" rx="19.5" stroke="#F8F7E5"/>
<path d="M14.768 14.4C15.644 14.4 16.418 14.568 17.09 14.904C17.762 15.228 18.32 15.684 18.764 16.272C19.22 16.848 19.562 17.52 19.79 18.288C20.018 19.044 20.132 19.848 20.132 20.7C20.132 21.864 19.928 22.926 19.52 23.886C19.112 24.834 18.512 25.59 17.72 26.154C16.928 26.718 15.944 27 14.768 27H10.376C10.124 27 9.908 26.916 9.728 26.748C9.548 26.568 9.458 26.346 9.458 26.082V15.318C9.458 15.054 9.548 14.838 9.728 14.67C9.908 14.49 10.124 14.4 10.376 14.4H14.768ZM14.588 25.272C15.44 25.272 16.13 25.062 16.658 24.642C17.186 24.222 17.57 23.67 17.81 22.986C18.062 22.29 18.188 21.528 18.188 20.7C18.188 20.088 18.116 19.512 17.972 18.972C17.84 18.42 17.624 17.934 17.324 17.514C17.036 17.082 16.664 16.746 16.208 16.506C15.764 16.254 15.224 16.128 14.588 16.128H11.186L11.348 15.966V25.452L11.24 25.272H14.588ZM23.2608 14.4H29.4888C29.7408 14.4 29.9508 14.484 30.1188 14.652C30.2988 14.82 30.3888 15.03 30.3888 15.282C30.3888 15.534 30.2988 15.738 30.1188 15.894C29.9508 16.05 29.7408 16.128 29.4888 16.128H24.0528L24.2328 15.822V19.854L24.0708 19.674H28.6788C28.9308 19.674 29.1408 19.758 29.3088 19.926C29.4888 20.094 29.5788 20.31 29.5788 20.574C29.5788 20.826 29.4888 21.03 29.3088 21.186C29.1408 21.342 28.9308 21.42 28.6788 21.42H24.1068L24.2328 21.258V25.416L24.1068 25.272H29.4888C29.7408 25.272 29.9508 25.362 30.1188 25.542C30.2988 25.71 30.3888 25.908 30.3888 26.136C30.3888 26.388 30.2988 26.598 30.1188 26.766C29.9508 26.922 29.7408 27 29.4888 27H23.2608C23.0088 27 22.7928 26.916 22.6128 26.748C22.4328 26.568 22.3428 26.346 22.3428 26.082V15.318C22.3428 15.054 22.4328 14.838 22.6128 14.67C22.7928 14.49 23.0088 14.4 23.2608 14.4Z" fill="#F8F7E5"/>
</svg>
