<svg width="32" height="32" viewBox="0 0 32 32" fill="none" xmlns="http://www.w3.org/2000/svg">
<path d="M10.8188 21.6427C10.5411 21.4569 10.3022 21.2208 10.0226 20.887C9.92157 20.7662 9.51252 20.2533 9.59146 20.3514C9.16308 19.8191 8.89244 19.5726 8.61344 19.4725C8.13222 19.3 7.88201 18.7699 8.05459 18.2888C8.22717 17.8075 8.75719 17.5573 9.23842 17.7299C9.93512 17.9798 10.4064 18.41 11.0412 19.1998C10.9542 19.0916 11.3554 19.5948 11.4421 19.6984C11.6184 19.909 11.7475 20.0365 11.8484 20.104C12.0381 20.231 12.3929 20.2857 12.9137 20.2336C12.9355 19.8798 13.0009 19.5368 13.1008 19.2197C10.3532 18.5482 8.7982 16.7754 8.7982 13.299C8.7982 12.1523 9.14 11.1183 9.77758 10.2518C9.57608 9.42435 9.60647 8.42363 10.0569 7.29756C10.1602 7.03933 10.3741 6.84123 10.6395 6.75804C10.7155 6.73602 10.7576 6.72623 10.8325 6.71473C11.5757 6.6006 12.6255 6.87239 13.9943 7.72985C14.7964 7.54049 15.6365 7.44441 16.4813 7.44441C17.3253 7.44441 18.1646 7.54031 18.966 7.72931C20.3328 6.86587 21.385 6.59417 22.1335 6.71453C22.2119 6.72714 22.2791 6.74352 22.335 6.76188C22.5951 6.84727 22.8041 7.0434 22.9057 7.29756C23.356 8.42337 23.3865 9.42391 23.1852 10.2512C23.8247 11.1178 24.1644 12.1441 24.1644 13.299C24.1644 16.7769 22.6147 18.5431 19.8671 19.2162C19.9827 19.6004 20.0437 20.0294 20.0437 20.4937C20.0437 21.1087 20.0414 21.6961 20.037 22.3547C20.0359 22.5308 20.0345 22.7189 20.0325 23.0079C20.38 23.0845 20.6669 23.3592 20.7412 23.7306C20.8414 24.2319 20.5163 24.7196 20.015 24.8199C18.9605 25.0307 18.1791 24.3276 18.1791 23.4087C18.1791 23.3251 18.1798 23.2056 18.1811 22.9953C18.1833 22.7055 18.1846 22.5181 18.1858 22.3426C18.19 21.6877 18.1923 21.1042 18.1923 20.4937C18.1923 19.8483 18.0228 19.4274 17.7981 19.2338C17.1862 18.7063 17.4963 17.703 18.2992 17.6128C21.0451 17.3043 22.3131 16.2408 22.3131 13.299C22.3131 12.4154 22.0244 11.6847 21.4678 11.0736C21.229 10.8114 21.1611 10.4358 21.2928 10.1065C21.4462 9.72308 21.5116 9.22063 21.3808 8.61263L21.3721 8.61509C20.9168 8.74393 20.3444 9.0225 19.6517 9.49339C19.4257 9.64694 19.1436 9.69288 18.8807 9.61894C18.1213 9.40539 17.3053 9.29576 16.4813 9.29576C15.6573 9.29576 14.8412 9.40539 14.0819 9.61894C13.8204 9.69249 13.5398 9.64744 13.3144 9.49572C12.6178 9.02675 12.0422 8.74849 11.5841 8.61887C11.4514 9.22352 11.5169 9.72418 11.6698 10.1065C11.8015 10.4358 11.7335 10.8114 11.4948 11.0736C10.9421 11.6805 10.6496 12.4234 10.6496 13.299C10.6496 16.2352 11.9187 17.3059 14.6502 17.6128C15.4511 17.7028 15.7625 18.7024 15.1542 19.2312C14.9761 19.3862 14.757 19.9088 14.757 20.4937V23.4087C14.757 24.3217 13.9842 25.0062 12.943 24.8239C12.4394 24.7358 12.1026 24.2561 12.1908 23.7526C12.2575 23.371 12.5492 23.0852 12.9056 23.0074V22.0914C12.0632 22.1482 11.3673 22.0097 10.8188 21.6427Z" fill="#F8F7E5"/>
</svg>
