<svg width="32" height="32" viewBox="0 0 32 32" fill="none" xmlns="http://www.w3.org/2000/svg">
<g clip-path="url(#clip0_2199_416)">
<path d="M12.9375 24.8304H20.0075C19.7275 24.1804 19.2675 23.3904 19.1075 22.5804C18.8975 21.5204 18.9275 20.3904 18.7975 19.3104C18.6675 18.2304 19.6875 18.3204 20.4375 17.9704C21.1275 17.6504 21.6075 17.3004 22.1175 16.7104C22.6275 16.1204 22.7575 15.2804 22.9375 14.5104C23.1475 13.5904 23.2875 12.7504 22.9975 11.8304C22.7575 11.0604 22.4175 10.3904 22.2675 9.5704C22.1575 8.9404 22.2675 7.4504 21.2675 7.6704C20.5575 7.8304 19.9275 8.3104 19.1975 8.4504C18.4075 8.6004 17.5775 8.5304 16.7775 8.5704C15.8575 8.6104 14.9475 8.6604 14.0275 8.5704C13.6775 8.5404 13.4075 8.4804 13.0975 8.3204C12.9175 8.2304 12.8775 8.1704 12.6675 8.1104C12.4975 8.0604 12.3275 8.0604 12.1575 8.0104C11.4375 7.8404 10.7375 7.7804 10.4675 8.6104C10.2775 9.2004 10.3375 10.0704 10.2975 10.6904C10.1875 12.3004 9.32747 14.1204 10.0775 15.6904C10.5475 16.6804 11.4775 17.2604 12.4475 17.6904C12.7975 17.8504 14.1375 18.2004 14.2075 18.6304C14.2475 18.8504 13.8575 19.3804 13.8175 19.6404C13.7075 20.2504 13.7375 20.8804 13.6575 21.5004C13.5375 22.3504 13.2775 23.1804 13.1175 24.0004C13.0575 24.2804 12.9775 24.5504 12.9375 24.8104C12.9375 24.8604 12.9375 24.8204 12.9475 24.8104L12.9375 24.8304Z" fill="#FF834F"/>
<path d="M10.8233 21.6523C10.5433 21.4623 10.3033 21.2323 10.0233 20.8923C9.9233 20.7723 9.5133 20.2623 9.5933 20.3523C9.1633 19.8223 8.8933 19.5723 8.6133 19.4723C8.1333 19.3023 7.8833 18.7723 8.0533 18.2923C8.2233 17.8123 8.7533 17.5623 9.2333 17.7323C9.9333 17.9823 10.4033 18.4123 11.0333 19.2023C10.9433 19.0923 11.3433 19.6023 11.4333 19.7023C11.6133 19.9123 11.7433 20.0423 11.8433 20.1123C12.0333 20.2423 12.3833 20.2923 12.9133 20.2423C12.9333 19.8923 13.0033 19.5423 13.1033 19.2323C10.3533 18.5623 8.8033 16.7923 8.8033 13.3123C8.8033 12.1623 9.1433 11.1323 9.7833 10.2623C9.5833 9.43228 9.6133 8.43228 10.0633 7.31228C10.1633 7.05228 10.3833 6.85228 10.6433 6.77228C10.7233 6.75228 10.7633 6.74228 10.8333 6.73228C11.5733 6.62228 12.6233 6.89228 13.9933 7.75228C14.7933 7.56228 15.6333 7.46228 16.4833 7.46228C17.3333 7.46228 18.1633 7.56228 18.9633 7.74228C20.3333 6.87228 21.3933 6.60228 22.1333 6.72228C22.2133 6.73228 22.2833 6.75228 22.3333 6.77228C22.5933 6.86228 22.8033 7.05228 22.9033 7.31228C23.3533 8.44228 23.3833 9.44228 23.1833 10.2623C23.8233 11.1323 24.1633 12.1523 24.1633 13.3123C24.1633 16.7923 22.6133 18.5523 19.8633 19.2323C19.9833 19.6123 20.0433 20.0423 20.0433 20.5123C20.0433 21.1223 20.0433 21.7123 20.0433 22.3723C20.0433 22.5523 20.0433 22.7323 20.0433 23.0223C20.3933 23.1023 20.6733 23.3723 20.7533 23.7423C20.8533 24.2423 20.5333 24.7323 20.0233 24.8323C18.9733 25.0423 18.1833 24.3423 18.1833 23.4223C18.1833 23.3423 18.1833 23.2223 18.1833 23.0123C18.1833 22.7223 18.1833 22.5323 18.1833 22.3623C18.1833 21.7123 18.1833 21.1223 18.1833 20.5123C18.1833 19.8623 18.0133 19.4423 17.7933 19.2523C17.1833 18.7223 17.4933 17.7223 18.2933 17.6323C21.0433 17.3223 22.3033 16.2623 22.3033 13.3223C22.3033 12.4423 22.0133 11.7123 21.4533 11.0923C21.2133 10.8323 21.1433 10.4523 21.2833 10.1223C21.4333 9.74228 21.5033 9.23228 21.3733 8.63228C20.9133 8.76228 20.3433 9.04228 19.6533 9.51228C19.4233 9.66228 19.1433 9.71228 18.8833 9.64228C18.1233 9.43228 17.3033 9.32228 16.4833 9.32228C15.6633 9.32228 14.8433 9.43228 14.0833 9.64228C13.8233 9.71228 13.5433 9.67228 13.3133 9.52228C12.6133 9.05228 12.0433 8.77228 11.5833 8.64228C11.4533 9.24228 11.5133 9.75228 11.6733 10.1323C11.8033 10.4623 11.7333 10.8323 11.4933 11.1023C10.9433 11.7123 10.6433 12.4523 10.6433 13.3323C10.6433 16.2723 11.9133 17.3423 14.6433 17.6423C15.4433 17.7323 15.7533 18.7323 15.1433 19.2623C14.9633 19.4223 14.7433 19.9423 14.7433 20.5223V23.4423C14.7433 24.3523 13.9733 25.0423 12.9333 24.8623C12.4333 24.7723 12.0933 24.2923 12.1833 23.7923C12.2533 23.4123 12.5433 23.1223 12.8933 23.0423V22.1223C12.0533 22.1823 11.3533 22.0423 10.8033 21.6723L10.8233 21.6523Z" fill="#F8F7E5"/>
</g>
<defs>
<clipPath id="clip0_2199_416">
<rect width="16.16" height="18.17" fill="white" transform="translate(8 6.69141)"/>
</clipPath>
</defs>
</svg>
