<svg width="32" height="32" viewBox="0 0 32 32" fill="none" xmlns="http://www.w3.org/2000/svg">
<g clip-path="url(#clip0_2199_414)">
<path d="M22.7972 8.96094H8.86719V22.8909H22.7972V8.96094Z" fill="#FF834F"/>
<path d="M8.89 7.69141H23.11C23.6 7.69141 24 8.09141 24 8.58141V22.8014C24 23.2914 23.6 23.6914 23.11 23.6914H8.89C8.4 23.6914 8 23.2914 8 22.8014V8.58141C8 8.09141 8.4 7.69141 8.89 7.69141ZM9.78 9.47141V21.9114H22.22V9.47141H9.78ZM12 13.0214C11.26 13.0214 10.67 12.4214 10.67 11.6914C10.67 10.9614 11.27 10.3614 12 10.3614C12.73 10.3614 13.33 10.9614 13.33 11.6914C13.33 12.4214 12.73 13.0214 12 13.0214ZM11.11 13.9114H12.89V20.5814H11.11V13.9114ZM16 14.2914C16.52 13.7914 17.12 13.4614 17.78 13.4614C19.62 13.4614 20.89 14.9514 20.89 16.7914V20.5714H19.11V16.7914C19.11 15.9314 18.41 15.2314 17.55 15.2314C16.69 15.2314 15.99 15.9314 15.99 16.7914V20.5714H14.21V13.9014H15.99V14.2814L16 14.2914Z" fill="#F8F7E5"/>
</g>
<defs>
<clipPath id="clip0_2199_414">
<rect width="16" height="16" fill="white" transform="translate(8 7.69141)"/>
</clipPath>
</defs>
</svg>
