<svg width="32" height="32" viewBox="0 0 32 32" fill="none" xmlns="http://www.w3.org/2000/svg">
<path d="M8.88889 7.6875H23.1111C23.6021 7.6875 24 8.08547 24 8.57639V22.7986C24 23.2895 23.6021 23.6875 23.1111 23.6875H8.88889C8.39796 23.6875 8 23.2895 8 22.7986V8.57639C8 8.08547 8.39796 7.6875 8.88889 7.6875ZM9.77778 9.46528V21.9097H22.2222V9.46528H9.77778ZM12 13.0208C11.2636 13.0208 10.6667 12.4239 10.6667 11.6875C10.6667 10.9511 11.2636 10.3542 12 10.3542C12.7364 10.3542 13.3333 10.9511 13.3333 11.6875C13.3333 12.4239 12.7364 13.0208 12 13.0208ZM11.1111 13.9097H12.8889V20.5764H11.1111V13.9097ZM16 14.2915C16.5195 13.79 17.1249 13.4653 17.7778 13.4653C19.6187 13.4653 20.8889 14.9576 20.8889 16.7986V20.5764H19.1111V16.7986C19.1111 15.9395 18.4147 15.2431 17.5556 15.2431C16.6965 15.2431 16 15.9395 16 16.7986V20.5764H14.2222V13.9097H16V14.2915Z" fill="#F8F7E5"/>
</svg>
