<svg width="40" height="40" viewBox="0 0 40 40" fill="none" xmlns="http://www.w3.org/2000/svg">
<g clip-path="url(#clip0_2249_414)">
<g clip-path="url(#clip1_2249_414)">
<path d="M34.84 13.15L21.68 6.41C21.16 6.14 20.58 6 20 6C19.42 6 18.83 6.14 18.33 6.41L5.16 13.15C4.45 13.52 4 14.24 4 15.04C4 15.84 4.44 16.57 5.16 16.93L7.98 18.38V18.99C7.98 23.65 11.77 27.44 16.43 27.44H23.55C23.75 27.44 23.94 27.42 24.13 27.41C24.17 27.8 24.27 28.18 24.45 28.52L24.03 30.47C23.83 31.39 24.06 32.33 24.65 33.05C25.24 33.78 26.11 34.19 27.05 34.19C27.99 34.19 28.86 33.77 29.45 33.04C30.04 32.31 30.26 31.37 30.06 30.46L29.65 28.52C29.65 28.52 29.92 27.86 29.94 27.79C30.11 26.85 29.93 25.9 29.29 25.17C29.37 25.1 29.45 25.03 29.53 24.95C31.12 23.35 32 21.23 31.99 18.98V18.38L34.85 16.92C35.56 16.55 36 15.83 36 15.03C36 14.23 35.56 13.5 34.84 13.14V13.15Z" fill="white"/>
<path d="M23.5466 26.4481H16.4266C12.3066 26.4481 8.97656 23.1181 8.97656 18.9981V14.3281H30.9866V18.9981C30.9966 23.1181 27.6666 26.4481 23.5466 26.4481Z" fill="#533566"/>
<path d="M21.2175 7.3L34.3875 14.04C35.1975 14.46 35.1975 15.63 34.3875 16.05L21.2175 22.79C20.4475 23.19 19.5475 23.19 18.7775 22.79L5.6075 16.05C4.7975 15.63 4.7975 14.46 5.6075 14.04L18.7775 7.3C19.5375 6.9 20.4475 6.9 21.2175 7.3Z" fill="#321B41"/>
<path d="M19.0977 14.5598C19.2977 14.1198 19.8277 13.9498 20.2577 14.1598L27.4477 17.8498C27.7377 17.9998 27.9077 18.2898 27.9077 18.6098V25.3398C28.5577 25.6598 29.0077 26.3298 29.0077 27.0998C29.0077 27.2698 28.9877 27.4298 28.9477 27.5898V27.6098C28.9477 27.6098 28.9277 27.7098 28.9077 27.7498C28.9077 27.7598 28.8977 27.7698 28.8977 27.7798C28.8877 27.8198 28.8677 27.8698 28.8477 27.9098C28.8477 27.9198 28.8377 27.9298 28.8377 27.9298C28.7877 28.0498 28.7077 28.1698 28.6377 28.2598C28.6277 28.2798 28.6177 28.2898 28.5977 28.3098L29.0977 30.6698C29.3777 31.9698 28.3877 33.1898 27.0577 33.1898C25.7277 33.1898 24.7377 31.9698 25.0177 30.6698L25.5177 28.3098C25.2477 27.9798 25.0877 27.5598 25.0877 27.0998C25.0877 26.8298 25.1377 26.5698 25.2377 26.3498C25.2377 26.3398 25.2477 26.3298 25.2577 26.3198C25.2677 26.2898 25.2877 26.2498 25.3077 26.2098C25.3277 26.1698 25.3477 26.1198 25.3877 26.0798C25.3977 26.0698 25.3977 26.0598 25.4077 26.0498C25.5977 25.7498 25.8777 25.4998 26.1977 25.3398V19.1198L19.4977 15.6898C19.0777 15.4798 18.8877 14.9598 19.0877 14.5398L19.0977 14.5598Z" fill="#FFB02E"/>
</g>
</g>
<defs>
<clipPath id="clip0_2249_414">
<rect width="40" height="40" fill="white"/>
</clipPath>
<clipPath id="clip1_2249_414">
<rect width="32" height="28.2" fill="white" transform="translate(4 6)"/>
</clipPath>
</defs>
</svg>
