<svg width="40" height="40" viewBox="0 0 40 40" fill="none" xmlns="http://www.w3.org/2000/svg">
<g clip-path="url(#clip0_2249_416)">
<g clip-path="url(#clip1_2249_416)">
<path d="M34.4 24.2C34.4 15.57 28.82 10 20.2 10C11.58 10 6 15.57 6 24.2C6 32.21 10.81 37.58 18.41 38.31C19.32 39.48 20.73 40.24 22.32 40.24H22.82C25.06 40.24 26.95 38.74 27.57 36.7C31.86 34.43 34.4 30.01 34.4 24.2Z" fill="white"/>
<path d="M20.2 37.4C29 37.4 33.4 31.49 33.4 24.2C33.4 16.91 29 11 20.2 11C11.4 11 7 16.91 7 24.2C7 31.49 11.4 37.4 20.2 37.4Z" fill="#F9AF42"/>
<path d="M14.9387 24.4088C17.1287 24.4088 18.9088 22.6287 18.9088 20.4387C18.9088 18.2487 17.1287 16.4688 14.9387 16.4688C12.7487 16.4688 10.9688 18.2487 10.9688 20.4387C10.9688 22.6287 12.7487 24.4088 14.9387 24.4088Z" fill="white"/>
<path d="M25.4531 24.4805C27.6631 24.4805 29.4531 22.6905 29.4531 20.4805C29.4531 18.2705 27.6631 16.4805 25.4531 16.4805C23.2431 16.4805 21.4531 18.2705 21.4531 20.4805C21.4531 22.6905 23.2431 24.4805 25.4531 24.4805Z" fill="white"/>
<path d="M18.3084 20.4316C18.3084 21.9916 17.0384 23.2616 15.4784 23.2616C13.9184 23.2616 12.6484 21.9916 12.6484 20.4316C12.6484 18.8716 13.9184 17.6016 15.4784 17.6016C17.0384 17.6016 18.3084 18.8716 18.3084 20.4316Z" fill="#402A32"/>
<path d="M27.7381 20.4316C27.7381 21.9916 26.4681 23.2616 24.9081 23.2616C23.3481 23.2616 22.0781 21.9916 22.0781 20.4316C22.0781 18.8716 23.3481 17.6016 24.9081 17.6016C26.4681 17.6016 27.7381 18.8716 27.7381 20.4316Z" fill="#402A32"/>
<path d="M17.3697 27.9688C16.8497 27.9688 16.4297 28.3888 16.4297 28.9088C16.4297 29.4288 16.8497 29.8488 17.3697 29.8488H23.0297C23.5497 29.8488 23.9697 29.4288 23.9697 28.9088C23.9697 28.3888 23.5497 27.9688 23.0297 27.9688H17.3697Z" fill="#402A32"/>
<path d="M22.8303 29.8692C22.1003 29.8692 22.1003 29.1392 22.1003 29.1392V26.0892C22.1003 25.0492 21.2503 24.1992 20.2103 24.1992C19.1703 24.1992 18.3203 25.0492 18.3203 26.0892V35.2292C18.3203 37.4392 20.1103 39.2192 22.3103 39.2192H22.8103C25.0203 39.2192 26.8003 37.4292 26.8003 35.2292V33.8392C26.8003 31.6392 25.1903 29.8492 22.8203 29.8492L22.8303 29.8692Z" fill="#FF822D"/>
</g>
</g>
<defs>
<clipPath id="clip0_2249_416">
<rect width="40" height="40" fill="white"/>
</clipPath>
<clipPath id="clip1_2249_416">
<rect width="28.4" height="30.24" fill="white" transform="translate(6 10)"/>
</clipPath>
</defs>
</svg>
